<?xml version="1.0" encoding="utf-8"?>
<!-- Generator: Adobe Illustrator 28.1.0, SVG Export Plug-In . SVG Version: 6.00 Build 0)  -->
<svg version="1.1" id="Layer_1" xmlns="http://www.w3.org/2000/svg" xmlns:xlink="http://www.w3.org/1999/xlink" x="0px" y="0px"
	 viewBox="0 0 192 40" style="enable-background:new 0 0 192 40;" xml:space="preserve">
<g>
	<path d="M48.43,30.87c0.32-0.03,0.62-0.07,0.92-0.13c0.29-0.06,0.53-0.14,0.72-0.25c0.19-0.11,0.29-0.25,0.29-0.42
		c0,0.38,0,0.76,0,1.15c-0.16,0-1.02,0-2.57,0s-3.32,0-5.29,0c-1.97,0-3.7,0-5.18,0c-1.48,0-2.29,0-2.44,0
		c0.13,0,0.24-0.05,0.32-0.15c0.08-0.1,0.15-0.21,0.19-0.33c0.17-0.42,0.26-0.86,0.29-1.33c0.03-0.47,0.04-0.93,0.03-1.39
		c-0.01-0.2-0.01-0.39-0.01-0.57c0-0.36,0-1.24,0-2.63c0-1.62,0-3.47,0-5.55s0-3.92,0-5.52c0-1.6,0-2.48,0-2.64
		c-0.01-0.26-0.03-0.51-0.06-0.76c0-0.02,0-0.04-0.01-0.06c-0.02-0.17-0.05-0.36-0.09-0.59c-0.04-0.23-0.12-0.44-0.22-0.62
		c-0.1-0.18-0.25-0.28-0.44-0.28h4.29c-0.14,0-0.25,0.05-0.33,0.15c-0.09,0.1-0.15,0.22-0.2,0.35s-0.08,0.25-0.11,0.36
		c-0.11,0.46-0.17,0.93-0.19,1.4c-0.01,0.14-0.01,0.27-0.01,0.4c0,0.11,0,1.01,0,2.68c0,1.67,0,3.59,0,5.76s0,4.08,0,5.75
		s0,2.63,0,2.89c0,0.38,0.02,0.78,0.06,1.2c0.04,0.42,0.15,0.8,0.32,1.15H48.43z M49.77,26.74c0.09,0.19,0.29,0.24,0.59,0.16
		c-0.02,0.04-0.05,0.11-0.1,0.2s-0.11,0.19-0.17,0.31c-0.06,0.11-0.12,0.22-0.17,0.32c-0.05,0.1-0.09,0.16-0.11,0.2
		c-0.19,0.01-0.35,0.02-0.49,0.02s-0.27,0-0.41,0c-0.14,0-0.25-0.01-0.34-0.03c-0.39-0.06-0.67-0.26-0.83-0.62
		c-0.08-0.27-0.11-0.56-0.09-0.85c0-0.03,0-0.06,0-0.09c-0.71,0.6-1.51,1.04-2.39,1.33c-0.54,0.19-1.1,0.32-1.69,0.38
		c-0.59,0.07-1.17,0.03-1.72-0.12c-0.6-0.18-1.07-0.5-1.4-0.97s-0.52-1.01-0.58-1.62c-0.04-0.59-0.05-1.19-0.03-1.79
		c0.01-0.26,0.02-0.52,0.02-0.79c0-0.99,0-1.98,0-2.97c0-0.03-0.01-0.16-0.02-0.38c-0.01-0.22-0.04-0.45-0.08-0.69
		s-0.09-0.45-0.17-0.6c-0.08-0.16-0.18-0.21-0.3-0.16c0.6-0.33,1.21-0.66,1.8-1c0.26-0.14,0.51-0.28,0.77-0.42c0,0.72,0,1.45,0,2.18
		c0,0.56,0,1.13,0,1.69s0,1.13,0,1.7c0,0.57,0,1.13,0,1.7s0,1.13,0,1.69c0,0.06,0,0.12-0.01,0.18c-0.01,0.15,0,0.3,0.01,0.45
		c0.03,0.37,0.15,0.69,0.35,0.96c0.2,0.27,0.48,0.45,0.84,0.56c0.33,0.07,0.66,0.09,1,0.04c0.33-0.05,0.66-0.12,0.97-0.23
		c0.97-0.3,1.84-0.79,2.61-1.45c0-0.15,0-0.58,0-1.29s0-1.48,0-2.3s0-1.51,0-2.07c0-0.1-0.01-0.29-0.02-0.57
		c-0.01-0.28-0.04-0.57-0.07-0.87c-0.04-0.3-0.09-0.54-0.17-0.74c-0.07-0.19-0.18-0.26-0.31-0.21c0.64-0.35,1.29-0.71,1.92-1.06
		c0.22-0.12,0.43-0.24,0.65-0.36c0,0.14,0,0.56,0,1.26c0,0.7,0,1.5,0,2.42c0,0.91,0,1.79,0,2.64c0,0.7,0,1.28,0,1.75
		c0,0.47,0,0.72,0,0.76c0,0.09,0,0.19,0,0.28c-0.01,0.19-0.01,0.38,0,0.57C49.64,26.42,49.69,26.6,49.77,26.74z"/>
	<path d="M61.02,29.14c0.19,0.32,0.4,0.63,0.62,0.95s0.45,0.57,0.68,0.78s0.43,0.32,0.63,0.32h-3.81l-3.43-6.22l-3.43,6.22h-0.39
		l3.63-6.58l-3.52-6.37c-0.19-0.33-0.4-0.65-0.63-0.96s-0.45-0.58-0.68-0.8c-0.23-0.21-0.44-0.32-0.63-0.32h3.81l3.16,5.72
		l3.16-5.72h0.39l-3.36,6.07L61.02,29.14z"/>
	<path d="M75.5,29.61c0.12,0.25,0.38,0.31,0.78,0.21c-0.02,0.05-0.07,0.14-0.14,0.26c-0.07,0.12-0.14,0.25-0.22,0.4
		c-0.08,0.15-0.16,0.3-0.23,0.42s-0.12,0.22-0.15,0.27c-0.25,0.01-0.46,0.01-0.64,0.01s-0.36,0-0.54,0s-0.33-0.02-0.45-0.04
		c-0.52-0.07-0.89-0.35-1.09-0.83c-0.11-0.36-0.15-0.73-0.13-1.11c0-0.04,0-0.09,0-0.13c-0.94,0.79-1.99,1.37-3.16,1.75
		c-0.71,0.25-1.45,0.41-2.24,0.5c-0.78,0.09-1.54,0.04-2.27-0.15c-0.8-0.23-1.42-0.66-1.86-1.28c-0.44-0.62-0.69-1.34-0.77-2.15
		c-0.05-0.78-0.06-1.56-0.03-2.35c0.01-0.35,0.02-0.7,0.02-1.04c0-1.31,0-2.61,0-3.92c0-0.05-0.01-0.22-0.03-0.5
		s-0.05-0.59-0.1-0.91c-0.05-0.33-0.13-0.59-0.22-0.8c-0.1-0.21-0.23-0.28-0.39-0.21c0.8-0.44,1.59-0.88,2.39-1.33
		c0.34-0.19,0.67-0.37,1.01-0.56c0,0.96,0,1.92,0,2.88c0,1,0,1.99,0,2.99s0,1.99,0,2.98c0,1,0,1.99,0,2.99c0,0.08,0,0.16,0,0.24
		c-0.01,0.2,0,0.4,0.01,0.6c0.05,0.48,0.2,0.9,0.47,1.26s0.64,0.6,1.12,0.73c0.43,0.1,0.87,0.12,1.31,0.06
		c0.44-0.06,0.87-0.17,1.29-0.31c1.28-0.4,2.43-1.04,3.45-1.92c0-0.19,0-0.76,0-1.7c0-0.94,0-1.95,0-3.04s0-2,0-2.73
		c0-0.14-0.01-0.39-0.02-0.76c-0.01-0.37-0.05-0.75-0.09-1.15c-0.05-0.4-0.12-0.72-0.23-0.97c-0.1-0.25-0.24-0.34-0.41-0.27
		c0.85-0.47,1.7-0.94,2.55-1.41c0.28-0.15,0.57-0.31,0.85-0.47c0,0.19,0,0.74,0,1.67s0,1.99,0,3.19c0,1.21,0,2.37,0,3.49
		c0,0.92,0,1.7,0,2.32c0,0.62,0,0.96,0,1c0,0.11,0,0.24-0.01,0.37c-0.01,0.25-0.01,0.5,0,0.76C75.33,29.18,75.4,29.41,75.5,29.61z"
		/>
	<path d="M83.85,16.75c0.7-0.33,1.41-0.48,2.14-0.48l-0.79,2.29c-0.53-0.1-1-0.16-1.4-0.17c-0.41-0.01-0.83,0.05-1.26,0.18
		s-0.84,0.36-1.2,0.71c-0.36,0.48-0.61,0.84-0.74,1.09l-0.01,0.01c-0.02,0.04-0.07,0.14-0.15,0.3c-0.09,0.16-0.18,0.33-0.28,0.53
		c-0.1,0.19-0.19,0.37-0.27,0.51v6.94c0.01,0.35,0.04,0.72,0.09,1.11c0.05,0.38,0.13,0.72,0.25,0.99c0.12,0.28,0.28,0.42,0.5,0.42
		h-4.3c0.19,0,0.35-0.12,0.46-0.35c0.11-0.23,0.2-0.52,0.26-0.86c0.06-0.34,0.09-0.68,0.1-1.02v-7.88c0-0.42-0.01-0.78-0.03-1.09
		s-0.05-0.58-0.08-0.79c-0.03-0.22-0.07-0.4-0.12-0.55c-0.04-0.15-0.09-0.26-0.13-0.34c-0.05-0.08-0.09-0.14-0.14-0.18
		c-0.05-0.04-0.09-0.06-0.12-0.07s-0.07-0.01-0.09-0.01c-0.02,0-0.04,0.01-0.04,0.01l0.75-0.42l2.64-1.46v4.82
		c0.12-0.22,0.22-0.41,0.31-0.57c0.02-0.03,0.04-0.07,0.06-0.11c0.02-0.04,0.04-0.07,0.06-0.1c0.02-0.03,0.03-0.05,0.03-0.05
		c0.11-0.19,0.29-0.45,0.52-0.78s0.52-0.67,0.87-1.04C82.39,17.63,83.1,17.1,83.85,16.75z"/>
	<path d="M102.29,16.06L95.36,30.7c-0.29,0.66-0.6,1.32-0.93,1.98c-0.33,0.66-0.7,1.29-1.11,1.91c-0.94,1.41-2.02,2.43-3.23,3.07
		c-0.9,0.47-1.82,0.7-2.75,0.71c-0.58,0-1.13-0.09-1.65-0.27l0.58-1.58c0.52,0.32,1,0.55,1.42,0.7c0.42,0.15,0.89,0.22,1.38,0.22
		s0.98-0.15,1.46-0.44c0.92-0.62,1.75-1.48,2.51-2.6c0.67-1.05,1.26-2.15,1.76-3.29h-0.02h-1.04L88.2,19.39l-0.99-2.09
		c-0.2-0.34-0.41-0.63-0.62-0.88s-0.43-0.36-0.63-0.36h3.59l6.18,13.06l6.18-13.06H102.29z"/>
	<path d="M129.77,8.69c-0.2,0-0.42,0.12-0.65,0.35c-0.24,0.23-0.47,0.52-0.71,0.86c-0.23,0.34-0.45,0.68-0.64,1.03
		c-0.19,0.34-0.35,0.63-0.46,0.86c-0.12,0.23-0.18,0.35-0.18,0.35l-8.71,18.98h-0.46L109,11.63c-0.12-0.25-0.27-0.54-0.44-0.87
		c-0.18-0.33-0.37-0.65-0.57-0.97s-0.41-0.58-0.62-0.79s-0.41-0.32-0.59-0.32h4.86c-0.19,0-0.3,0.12-0.33,0.36
		c-0.02,0.24,0.01,0.53,0.09,0.87s0.18,0.69,0.3,1.04c0.12,0.34,0.23,0.63,0.32,0.86c0.09,0.23,0.14,0.35,0.15,0.36l7.29,15.87
		l7.51-16.37c0.1-0.25,0.21-0.53,0.32-0.87c0.11-0.33,0.2-0.66,0.27-0.99c0.07-0.33,0.09-0.6,0.06-0.81
		c-0.03-0.22-0.13-0.33-0.32-0.33H129.77z"/>
	<path d="M139.52,1.75c0.69,0.46,1.22,1.05,1.6,1.76c0.38,0.71,0.55,1.46,0.53,2.25c-0.04,0.79-0.28,1.5-0.72,2.13
		c-0.44,0.64-1,1.1-1.69,1.38v19.35c0.01,0.36,0.03,0.73,0.09,1.12c0.05,0.38,0.13,0.71,0.25,0.99c0.12,0.28,0.28,0.42,0.49,0.42
		h-1.15h-2h-1.15c0.19,0,0.35-0.12,0.46-0.35c0.11-0.23,0.2-0.52,0.25-0.86c0.05-0.34,0.09-0.68,0.11-1.02V13.62
		c0-0.42-0.01-0.78-0.03-1.09c-0.02-0.31-0.05-0.58-0.08-0.8s-0.07-0.41-0.12-0.55c-0.05-0.14-0.09-0.26-0.14-0.34
		c-0.04-0.09-0.09-0.15-0.14-0.18c-0.04-0.04-0.08-0.06-0.12-0.07c-0.03-0.01-0.06-0.01-0.09-0.01c-0.03,0-0.04,0.01-0.05,0.01
		l0.76-0.42l2.64-1.46V8.9c0.59-0.28,1.08-0.7,1.45-1.27c0.38-0.57,0.58-1.2,0.62-1.89c0.02-0.73-0.14-1.42-0.5-2.08
		c-0.35-0.66-0.85-1.2-1.49-1.62c-1.27-0.78-2.68-0.96-4.22-0.55c-1.39,0.42-2.56,1.28-3.5,2.58c-0.87,1.27-1.34,2.67-1.4,4.22
		c-0.06,1.55,0.27,3,1,4.35c0.06-0.39,0.23-0.72,0.52-0.98c0.29-0.26,0.63-0.39,1.02-0.39c0.43,0,0.8,0.15,1.1,0.45
		c0.3,0.3,0.45,0.67,0.45,1.1c0,0.43-0.15,0.79-0.45,1.09c-0.3,0.3-0.67,0.45-1.1,0.45c-0.3,0-0.58-0.08-0.83-0.24
		c-0.25-0.16-0.44-0.37-0.57-0.63c-0.95-1.35-1.45-2.91-1.5-4.67c-0.02-1.88,0.47-3.53,1.47-4.98c0.99-1.36,2.22-2.27,3.69-2.72
		C136.66,0.72,138.16,0.91,139.52,1.75z M134.46,28.63c0.01,0.36,0.04,0.73,0.09,1.12c0.05,0.38,0.13,0.71,0.25,0.99
		c0.12,0.28,0.28,0.42,0.5,0.42h-4.3c0.19,0,0.35-0.12,0.46-0.35c0.11-0.23,0.2-0.52,0.26-0.86c0.06-0.34,0.09-0.68,0.1-1.02v-1.57
		V22.7v-1.65c0-0.42-0.01-0.79-0.03-1.1c-0.02-0.31-0.05-0.58-0.08-0.8c-0.04-0.22-0.07-0.4-0.12-0.55s-0.09-0.26-0.13-0.34
		c-0.05-0.08-0.09-0.14-0.14-0.18c-0.04-0.04-0.09-0.06-0.12-0.07s-0.07-0.01-0.09,0c-0.02,0.01-0.04,0.01-0.04,0.02l0.75-0.42
		l2.64-1.46v6.56v4.65V28.63z"/>
	<path d="M144.75,31.17h-4.29c0.19,0,0.35-0.12,0.46-0.35c0.11-0.23,0.2-0.52,0.25-0.86c0.05-0.34,0.09-0.68,0.11-1.02V13.65
		c0-0.42-0.01-0.79-0.03-1.1c-0.02-0.31-0.05-0.58-0.08-0.79s-0.07-0.4-0.12-0.55c-0.05-0.15-0.09-0.26-0.14-0.34
		c-0.05-0.08-0.09-0.14-0.13-0.18s-0.08-0.06-0.12-0.07s-0.07-0.01-0.09,0s-0.04,0.01-0.05,0.01l3.4-1.87v19.91
		c0.01,0.35,0.03,0.72,0.09,1.11c0.05,0.38,0.14,0.72,0.25,0.99C144.38,31.03,144.54,31.17,144.75,31.17z"/>
	<path d="M157.26,29.82c-0.03,0.05-0.07,0.14-0.14,0.25c-0.06,0.12-0.13,0.25-0.21,0.39c-0.09,0.16-0.16,0.3-0.24,0.44
		c-0.07,0.13-0.12,0.22-0.15,0.27c-0.38,0.02-0.7,0.02-0.97,0.01c-0.27-0.01-0.53-0.04-0.79-0.09c-0.26-0.05-0.46-0.13-0.61-0.24
		c-0.26-0.23-0.42-0.53-0.47-0.89c-0.05-0.36-0.06-0.71-0.04-1.07c0.01-0.14,0.01-0.26,0.01-0.38c-0.35,0.71-0.85,1.28-1.5,1.72
		c-0.65,0.44-1.36,0.72-2.14,0.84c-0.71,0.11-1.41,0.09-2.12-0.06s-1.33-0.46-1.89-0.92c-0.58-0.5-0.96-1.11-1.16-1.83
		c-0.2-0.72-0.14-1.44,0.16-2.15c0.34-0.7,0.84-1.24,1.5-1.64s1.35-0.72,2.06-0.95c0.79-0.28,1.57-0.56,2.36-0.83
		c0.91-0.31,1.81-0.63,2.71-0.95c0-0.74,0-1.47,0-2.2c0-0.15,0-0.3,0.01-0.45c0.03-0.4,0.01-0.79-0.04-1.17
		c-0.1-0.47-0.32-0.79-0.66-0.96c-0.34-0.17-0.72-0.27-1.15-0.29c-0.7-0.06-1.42,0-2.14,0.2c-0.73,0.2-1.33,0.57-1.82,1.11
		c-0.06-0.12-0.11-0.24-0.17-0.35c-0.21-0.42-0.42-0.84-0.62-1.27l-0.02-0.04c0.34-0.02,0.69-0.05,1.03-0.08
		c0.95-0.09,1.9-0.13,2.86-0.1c0.96,0.02,1.87,0.22,2.74,0.6c0.79,0.35,1.42,0.87,1.89,1.55c0.47,0.68,0.72,1.46,0.75,2.32
		c0.01,0.72,0.02,1.74,0.01,3.04s-0.01,2.45-0.01,3.45c0,0.59,0,0.98,0,1.17c0,0.03,0,0.07,0,0.09c-0.01,0.25,0.01,0.5,0.03,0.76
		c0.03,0.26,0.11,0.47,0.25,0.62C156.72,29.87,156.95,29.91,157.26,29.82z M153.53,27.99c0.04-0.1,0.08-0.19,0.12-0.29v-5.61
		c-0.23,0.08-0.47,0.16-0.7,0.25c-0.51,0.18-1.03,0.36-1.54,0.55c-0.22,0.07-0.44,0.15-0.66,0.21c-0.46,0.13-0.89,0.29-1.32,0.49
		c-0.49,0.27-0.89,0.67-1.18,1.19c-0.3,0.52-0.48,1.06-0.54,1.6c-0.1,1.08,0.17,2.07,0.8,2.95c0.31,0.43,0.7,0.78,1.15,1.05
		c0.27,0.15,0.54,0.21,0.83,0.19c0.29-0.02,0.56-0.09,0.83-0.22c0.52-0.23,0.96-0.56,1.33-0.97C153,28.97,153.3,28.51,153.53,27.99z
		"/>
</g>
</svg>
